<?xml version="1.0" encoding="UTF-8"?>
<!DOCTYPE svg PUBLIC "-//W3C//DTD SVG 1.0//EN" "http://www.w3.org/TR/2001/REC-SVG-20010904/DTD/svg10.dtd">
<!-- Creator: CorelDRAW 2020 (64-Bit) -->
<svg xmlns="http://www.w3.org/2000/svg" xml:space="preserve" width="2.29332in" height="2.29332in" version="1.0" style="shape-rendering:geometricPrecision; text-rendering:geometricPrecision; image-rendering:optimizeQuality; fill-rule:evenodd; clip-rule:evenodd"
viewBox="0 0 256.59 256.59"
 xmlns:xlink="http://www.w3.org/1999/xlink"
 xmlns:xodm="http://www.corel.com/coreldraw/odm/2003">
 <defs>
  <style type="text/css">
   <![CDATA[
    .fil0 {fill:#E6E7E8}
    .fil1 {fill:#4B4B4D}
    .fil2 {fill:#C40F40}
   ]]>
  </style>
 </defs>
 <g id="Capa_x0020_1">
  <metadata id="CorelCorpID_0Corel-Layer"/>
  <path class="fil0" d="M128.29 0c70.86,0 128.29,57.44 128.29,128.29 0,70.86 -57.44,128.29 -128.29,128.29 -70.86,0 -128.29,-57.44 -128.29,-128.29 0,-70.86 57.44,-128.29 128.29,-128.29zm0 1.49c70.03,0 126.8,56.77 126.8,126.8 0,70.03 -56.77,126.8 -126.8,126.8 -70.03,0 -126.8,-56.77 -126.8,-126.8 0,-70.03 56.77,-126.8 126.8,-126.8z"/>
  <path class="fil1" d="M64.3 127.34l127.98 0 0 63.37 -127.98 0 0 -63.37zm2.46 -5.61l50.93 -13.64c0.04,0.12 0.07,0.23 0.11,0.34 0.14,0.42 0.32,0.83 0.51,1.22l-45.59 12.07 111.12 0 -50.62 -13.4c-2.68,-0.71 -6.94,-0.77 -9.64,-0.06l-0.67 0.17c-0.37,-0.46 -0.7,-0.96 -0.97,-1.49l1.42 -0.38c3.05,-0.82 7.18,-0.72 10.23,0.1l56.22 15.06 2.46 0 0 -3.03 6.76 0 0 3.03 0 74.59 0 3.03 -6.76 0 0 -3.03 -127.98 0 0 3.03 -6.76 0 0 -3.03 0 -74.59 0 -3.03 6.76 0 0 3.03 2.46 0zm118.61 7.93l-2.24 0c-1.2,0 -2.19,0.99 -2.19,2.19l0 54.36c0,1.2 0.99,2.19 2.19,2.19l2.24 0c1.2,0 2.19,-0.99 2.19,-2.19l0 -54.36c0,-1.2 -0.99,-2.19 -2.19,-2.19zm-11.19 0l-2.24 0c-1.2,0 -2.19,0.99 -2.19,2.19l0 54.36c0,1.2 0.99,2.19 2.19,2.19l2.24 0c1.2,0 2.19,-0.99 2.19,-2.19l0 -54.36c0,-1.2 -0.99,-2.19 -2.19,-2.19zm-11.19 0l-2.24 0c-1.2,0 -2.19,0.99 -2.19,2.19l0 54.36c0,1.2 0.99,2.19 2.19,2.19l2.24 0c1.2,0 2.19,-0.99 2.19,-2.19l0 -54.36c0,-1.2 -0.99,-2.19 -2.19,-2.19zm-11.19 0l-2.24 0c-1.2,0 -2.19,0.99 -2.19,2.19l0 54.36c0,1.2 0.99,2.19 2.19,2.19l2.24 0c1.2,0 2.19,-0.99 2.19,-2.19l0 -54.36c0,-1.2 -0.99,-2.19 -2.19,-2.19zm-11.19 0l-2.24 0c-1.2,0 -2.19,0.99 -2.19,2.19l0 54.36c0,1.2 0.99,2.19 2.19,2.19l2.24 0c1.2,0 2.19,-0.99 2.19,-2.19l0 -54.36c0,-1.2 -0.99,-2.19 -2.19,-2.19zm-11.19 0l-2.24 0c-1.2,0 -2.19,0.99 -2.19,2.19l0 54.36c0,1.2 0.99,2.19 2.19,2.19l2.24 0c1.2,0 2.19,-0.99 2.19,-2.19l0 -54.36c0,-1.2 -0.99,-2.19 -2.19,-2.19zm-11.19 0l-2.24 0c-1.2,0 -2.19,0.99 -2.19,2.19l0 54.36c0,1.2 0.99,2.19 2.19,2.19l2.24 0c1.2,0 2.19,-0.99 2.19,-2.19l0 -54.36c0,-1.2 -0.99,-2.19 -2.19,-2.19zm-11.19 0l-2.24 0c-1.2,0 -2.19,0.99 -2.19,2.19l0 54.36c0,1.2 0.99,2.19 2.19,2.19l2.24 0c1.2,0 2.19,-0.99 2.19,-2.19l0 -54.36c0,-1.2 -0.99,-2.19 -2.19,-2.19zm-11.19 0l-2.24 0c-1.2,0 -2.19,0.99 -2.19,2.19l0 54.36c0,1.2 0.99,2.19 2.19,2.19l2.24 0c1.2,0 2.19,-0.99 2.19,-2.19l0 -54.36c0,-1.2 -0.99,-2.19 -2.19,-2.19zm-11.19 0l-2.24 0c-1.2,0 -2.19,0.99 -2.19,2.19l0 54.36c0,1.2 0.99,2.19 2.19,2.19l2.24 0c1.2,0 2.19,-0.99 2.19,-2.19l0 -54.36c0,-1.2 -0.99,-2.19 -2.19,-2.19zm-11.19 0l-2.24 0c-1.2,0 -2.19,0.99 -2.19,2.19l0 54.36c0,1.2 0.99,2.19 2.19,2.19l2.24 0c1.2,0 2.19,-0.99 2.19,-2.19l0 -54.36c0,-1.2 -0.99,-2.19 -2.19,-2.19z"/>
  <path class="fil2" d="M128.34 39.21c4.48,0 8.58,1.64 11.73,4.34l2.57 0 0 -15.82 2.69 0 0 12.09c0,3.2 0.52,6.41 -2.69,6.41l-0.02 0c2.34,3.04 3.73,6.85 3.73,10.98 0,4.29 -2.91,11.01 -4.92,17.26 -2.39,7.43 -4.79,14.2 -10.94,15.45 0.15,3.39 0.7,5.78 2.13,6.75 2.75,1.88 4.69,4.91 4.69,8.49 0,0.83 -0.1,1.64 -0.29,2.41l-3.42 -0.92c-0.28,-0.08 -0.57,-0.14 -0.87,-0.21 0.1,-0.41 0.15,-0.85 0.15,-1.29 0,-2.33 -1.43,-4.33 -3.45,-5.17 -0.81,-0.34 -3.21,-2.13 -3.19,-5.73l0 -4.33c-6.18,-1.22 -8.77,-7.93 -11.18,-15.33 -2.05,-6.29 -4.73,-13.08 -4.73,-17.4 0,-4.13 1.39,-7.94 3.73,-10.98l-0.02 0c-3.2,0 -2.69,-3.21 -2.69,-6.41l0 -12.09 2.69 0 0 15.82 2.57 0c3.15,-2.71 7.25,-4.34 11.73,-4.34zm8.13 69.98c-1.55,3.54 -5.08,6.01 -9.19,6.01 -3.98,0 -7.41,-2.31 -9.03,-5.67l-0.01 -0.02c-0.08,-0.17 -0.16,-0.35 -0.23,-0.52l-0.02 -0.04c-0.04,-0.1 -0.08,-0.2 -0.12,-0.31l-0.01 -0.03 -0.06 -0.17 -0 -0.01 -0.01 -0.03 -0.01 -0.04 -0.02 -0.06 -0 -0.01 -0.01 -0.02 -0.01 -0.02 -0.01 -0.02 -0 -0.01 -0.01 -0.03 -0 -0 -0.01 -0.02 -0 -0.01 -0.01 -0.02 -0 -0.01 -0.01 -0.02 -0 -0 -0 -0.02c-0.8,-2.69 -0.74,-7.03 2.19,-8.19 1.68,-0.66 0.84,2.51 1.25,4.71 0.16,0.87 0.48,1.74 0.93,2.55l0.02 0.03 0.04 0.07 0.02 0.03 0.07 0.11 0.01 0.01 0.01 0.03 0.03 0.05 0.03 0.05 0.04 0.07 0.02 0.03 0.07 0.1 0.03 0.05 0.02 0.03 0.07 0.1 0.03 0.05 0.06 0.08 0.05 0.07 0.03 0.03 0 0 0.02 0.02 0.05 0.07 0.04 0.05 0.02 0.03 0 0 0.03 0.04 0.04 0.05 0.02 0.02c1.12,1.37 2.65,2.32 4.36,2.32 2.02,0 3.8,-1.08 4.78,-2.69 0.41,0.07 0.8,0.16 1.16,0.25l3.24 0.86zm-8.13 -35.07c3.36,0 6.09,2.73 6.09,6.09 0,3.36 -2.73,6.09 -6.09,6.09 -3.36,0 -6.09,-2.73 -6.09,-6.09 0,-3.36 2.73,-6.09 6.09,-6.09zm0 2.75c1.84,0 3.34,1.5 3.34,3.34 0,1.84 -1.5,3.34 -3.34,3.34 -1.84,0 -3.34,-1.5 -3.34,-3.34 0,-1.84 1.5,-3.34 3.34,-3.34z"/>
 </g>
</svg>
