<?xml version="1.0" encoding="UTF-8"?>
<!DOCTYPE svg PUBLIC "-//W3C//DTD SVG 1.0//EN" "http://www.w3.org/TR/2001/REC-SVG-20010904/DTD/svg10.dtd">
<!-- Creator: CorelDRAW 2020 (64-Bit) -->
<svg xmlns="http://www.w3.org/2000/svg" xml:space="preserve" width="212px" height="212px" version="1.0" style="shape-rendering:geometricPrecision; text-rendering:geometricPrecision; image-rendering:optimizeQuality; fill-rule:evenodd; clip-rule:evenodd"
viewBox="0 0 2.058 2.058"
 xmlns:xlink="http://www.w3.org/1999/xlink"
 xmlns:xodm="http://www.corel.com/coreldraw/odm/2003">
 <defs>
  <style type="text/css">
   <![CDATA[
    .fil0 {fill:#E6E7E8}
    .fil1 {fill:#4B4B4D}
    .fil2 {fill:#C40F40}
   ]]>
  </style>
 </defs>
 <g id="Capa_x0020_1">
  <metadata id="CorelCorpID_0Corel-Layer"/>
  <path class="fil0" d="M1.029 0c0.568,0 1.029,0.461 1.029,1.029 0,0.568 -0.461,1.029 -1.029,1.029 -0.568,0 -1.029,-0.461 -1.029,-1.029 0,-0.568 0.461,-1.029 1.029,-1.029zm0 0.012c0.562,0 1.017,0.455 1.017,1.017 0,0.562 -0.455,1.017 -1.017,1.017 -0.562,0 -1.017,-0.455 -1.017,-1.017 0,-0.562 0.455,-1.017 1.017,-1.017z"/>
  <g id="_1798955223680">
   <path class="fil1" d="M0.35 1.002c0.026,0.013 0.079,0.051 0.105,0.057 0.024,-0.021 0.09,-0.154 0.114,-0.195 0.019,-0.031 0.103,-0.175 0.108,-0.2 -0.012,-0.014 -0.084,-0.06 -0.106,-0.064 -0.027,0.035 -0.218,0.369 -0.221,0.402zm0.157 0.032c0.011,0.02 0.037,0.053 0.052,0.068 0.05,-0.029 0.106,-0.03 0.126,0.032 0.011,-0.007 0.003,0 0.011,-0.009 0.017,-0.018 0.034,-0.048 0.085,-0.029 0.057,0.02 0.04,0.057 0.058,0.087 0.015,0.015 0.071,0.007 0.076,0.097 0.077,0.016 0.109,0.079 0.059,0.138 0.077,0.028 0.165,0.048 0.201,-0.021l-0.111 -0.051c-0.019,-0.009 -0.024,-0.007 -0.027,-0.027 0.021,-0.02 0.048,0.004 0.1,0.03 0.04,0.02 0.139,0.065 0.134,-0.026 -0.022,-0.019 -0.065,-0.04 -0.093,-0.056 -0.018,-0.011 -0.071,-0.033 -0.075,-0.051 -0.007,-0.028 -0.004,-0.005 0.003,-0.014 0.015,-0.008 0.111,0.054 0.134,0.067 0.024,0.014 0.045,0.034 0.078,0.031 0.036,-0.004 0.047,-0.028 0.046,-0.064 -0.055,-0.049 -0.2,-0.103 -0.206,-0.143 0.063,-0.012 0.213,0.15 0.277,0.12 0.022,-0.01 0.036,-0.045 0.014,-0.072 -0.038,-0.048 -0.383,-0.284 -0.439,-0.29 -0.053,-0.006 -0.079,0.055 -0.12,0.085 -0.036,0.027 -0.115,0.057 -0.15,0.011 -0.015,-0.068 0.055,-0.127 0.077,-0.176 -0.052,-0.005 -0.103,-0.019 -0.136,-0.041 -0.015,0.013 -0.155,0.267 -0.174,0.304zm-0.075 -0.088c0.016,0 0.029,0.013 0.029,0.029 0,0.016 -0.013,0.029 -0.029,0.029 -0.016,0 -0.029,-0.013 -0.029,-0.029 0,-0.016 0.013,-0.029 0.029,-0.029z"/>
   <path class="fil2" d="M0.905 1.315c-0.012,0.005 -0.056,0.061 -0.062,0.077 -0.016,0.037 0.023,0.079 0.062,0.063 0.012,-0.005 0.056,-0.064 0.061,-0.08 0.013,-0.038 -0.03,-0.074 -0.061,-0.06zm-0.089 -0.089c-0.021,0.019 -0.054,0.063 -0.072,0.09 -0.037,0.054 0.022,0.099 0.058,0.076 0.008,-0.005 0.061,-0.079 0.07,-0.093 0.032,-0.045 -0.015,-0.108 -0.056,-0.073zm-0.075 -0.1c-0.023,0.011 -0.07,0.082 -0.087,0.106 -0.012,0.018 -0.029,0.034 -0.02,0.062 0.007,0.021 0.03,0.045 0.061,0.032 0.017,-0.007 0.07,-0.086 0.085,-0.107 0.062,-0.084 -0.015,-0.105 -0.039,-0.093zm-0.144 -0.011c-0.087,0.054 -0.033,0.143 0.02,0.115 0.011,-0.005 0.046,-0.052 0.044,-0.074 -0.001,-0.028 -0.032,-0.06 -0.064,-0.041zm0.784 -0.451c0.004,0.022 0.205,0.38 0.222,0.395 0.025,-0.006 0.08,-0.044 0.105,-0.057 -0.003,-0.032 -0.204,-0.386 -0.221,-0.402 -0.021,0.004 -0.094,0.05 -0.106,0.064zm-0.613 0.273c0.11,0.012 0.127,-0.055 0.171,-0.091 0.07,-0.057 0.131,-0.001 0.193,0.033 0.092,0.052 0.164,0.105 0.245,0.166 0.021,0.015 0.06,0.05 0.081,0.058 0.02,-0.008 0.079,-0.059 0.091,-0.075l-0.171 -0.302c-0.166,0.024 -0.164,-0.045 -0.395,-0.015 -0.099,0.013 -0.093,0.015 -0.139,0.08 -0.027,0.039 -0.074,0.088 -0.076,0.146zm0.862 0.011c0.016,0 0.029,0.013 0.029,0.029 0,0.016 -0.013,0.029 -0.029,0.029 -0.016,0 -0.028,-0.013 -0.028,-0.029 0,-0.016 0.012,-0.029 0.028,-0.029z"/>
  </g>
 </g>
</svg>
