<?xml version="1.0" encoding="UTF-8"?>
<!DOCTYPE svg PUBLIC "-//W3C//DTD SVG 1.0//EN" "http://www.w3.org/TR/2001/REC-SVG-20010904/DTD/svg10.dtd">
<!-- Creator: CorelDRAW 2020 (64-Bit) -->
<svg xmlns="http://www.w3.org/2000/svg" xml:space="preserve" width="1.33334in" height="1.33334in" version="1.0" style="shape-rendering:geometricPrecision; text-rendering:geometricPrecision; image-rendering:optimizeQuality; fill-rule:evenodd; clip-rule:evenodd"
viewBox="0 0 41.98 41.98"
 xmlns:xlink="http://www.w3.org/1999/xlink"
 xmlns:xodm="http://www.corel.com/coreldraw/odm/2003">
 <defs>
  <style type="text/css">
   <![CDATA[
    .fil1 {fill:#FEFEFE}
    .fil0 {fill:#C40F40}
   ]]>
  </style>
 </defs>
 <g id="Capa_x0020_1">
  <metadata id="CorelCorpID_0Corel-Layer"/>
  <circle class="fil0" cx="20.99" cy="20.99" r="20.99"/>
  <path class="fil1" d="M17.6 13.8l7.42 -3.5 2.55 5.4 -7.42 3.5 -2.55 -5.4zm2.89 11.05c1.79,-0.84 3.93,-0.08 4.77,1.71 0.84,1.79 0.08,3.93 -1.71,4.77 -1.79,0.84 -3.93,0.08 -4.77,-1.71 -0.84,-1.79 -0.08,-3.93 1.71,-4.77zm0.86 1.83c0.78,-0.37 1.71,-0.03 2.08,0.75 0.37,0.78 0.03,1.71 -0.75,2.08 -0.78,0.37 -1.71,0.03 -2.08,-0.75 -0.37,-0.78 -0.03,-1.71 0.75,-2.08zm-0.36 -3.2l-5.74 -12.15c-0.25,-0.52 -0.85,-0.74 -1.38,-0.5l-4.63 2.18c-0.52,0.24 -0.74,0.87 -0.5,1.38l0 0c0.24,0.52 0.87,0.74 1.38,0.5l3.69 -1.74 5.29 11.22c0.27,-0.21 0.57,-0.39 0.89,-0.55 0.32,-0.15 0.65,-0.26 0.99,-0.34zm5.65 3.59l6.1 -2.88c0.52,-0.24 0.74,-0.87 0.5,-1.38l0 0c-0.24,-0.52 -0.87,-0.74 -1.38,-0.5l-6.1 2.88c0.21,0.27 0.39,0.57 0.55,0.89 0.15,0.32 0.26,0.65 0.34,0.99zm-6.1 -7.03l8.89 -4.19 2.55 5.4 -6.89 3.25c-0.83,-0.71 -1.89,-1.1 -2.97,-1.13l-1.57 -3.34z"/>
 </g>
</svg>
