<?xml version="1.0" encoding="UTF-8"?>
<!DOCTYPE svg PUBLIC "-//W3C//DTD SVG 1.0//EN" "http://www.w3.org/TR/2001/REC-SVG-20010904/DTD/svg10.dtd">
<!-- Creator: CorelDRAW 2020 (64-Bit) -->
<svg xmlns="http://www.w3.org/2000/svg" xml:space="preserve" width="1.33334in" height="1.33334in" version="1.0" style="shape-rendering:geometricPrecision; text-rendering:geometricPrecision; image-rendering:optimizeQuality; fill-rule:evenodd; clip-rule:evenodd"
viewBox="0 0 93.19 93.19"
 xmlns:xlink="http://www.w3.org/1999/xlink"
 xmlns:xodm="http://www.corel.com/coreldraw/odm/2003">
 <defs>
  <style type="text/css">
   <![CDATA[
    .fil1 {fill:#FEFEFE}
    .fil0 {fill:#C40F40}
   ]]>
  </style>
 </defs>
 <g id="Capa_x0020_1">
  <metadata id="CorelCorpID_0Corel-Layer"/>
  <circle class="fil0" cx="46.59" cy="46.59" r="46.59"/>
  <path class="fil1" d="M30.43 37.85c4.83,0 8.74,3.91 8.74,8.74 0,4.83 -3.91,8.74 -8.74,8.74 -4.83,0 -8.74,-3.91 -8.74,-8.74 0,-4.83 3.91,-8.74 8.74,-8.74zm41.35 11.49l0 7.76 -4.78 0 0 -7.76 -1.86 0 0 7.76 -4.66 0 0 -7.76 -16.68 0c-1.27,6.22 -6.78,10.9 -13.38,10.9 -7.54,0 -13.65,-6.11 -13.65,-13.65 0,-7.54 6.11,-13.65 13.65,-13.65 6.74,0 12.33,4.88 13.45,11.3l32.52 0 0 5.11 -4.62 0z"/>
 </g>
</svg>
