<?xml version="1.0" encoding="UTF-8"?>
<!DOCTYPE svg PUBLIC "-//W3C//DTD SVG 1.0//EN" "http://www.w3.org/TR/2001/REC-SVG-20010904/DTD/svg10.dtd">
<!-- Creator: CorelDRAW 2020 (64-Bit) -->
<svg xmlns="http://www.w3.org/2000/svg" xml:space="preserve" width="2.29332in" height="2.29332in" version="1.0" style="shape-rendering:geometricPrecision; text-rendering:geometricPrecision; image-rendering:optimizeQuality; fill-rule:evenodd; clip-rule:evenodd"
viewBox="0 0 134.86 134.86"
 xmlns:xlink="http://www.w3.org/1999/xlink"
 xmlns:xodm="http://www.corel.com/coreldraw/odm/2003">
 <defs>
  <style type="text/css">
   <![CDATA[
    .fil0 {fill:#E6E7E8}
    .fil2 {fill:#4B4B4D}
    .fil1 {fill:#C40F40}
   ]]>
  </style>
 </defs>
 <g id="Capa_x0020_1">
  <metadata id="CorelCorpID_0Corel-Layer"/>
  <path class="fil0" d="M67.43 0c37.24,0 67.43,30.19 67.43,67.43 0,37.24 -30.19,67.43 -67.43,67.43 -37.24,0 -67.43,-30.19 -67.43,-67.43 0,-37.24 30.19,-67.43 67.43,-67.43zm0 0.78c36.81,0 66.65,29.84 66.65,66.65 0,36.81 -29.84,66.65 -66.65,66.65 -36.81,0 -66.65,-29.84 -66.65,-66.65 0,-36.81 29.84,-66.65 66.65,-66.65z"/>
  <g id="_2776655017024">
   <path class="fil1" d="M26.33 41.15l53.93 0c1.51,0 2.74,1.23 2.74,2.74l0 27.03c0,1.51 -1.23,2.74 -2.74,2.74l-53.93 0c-1.51,0 -2.74,-1.23 -2.74,-2.74l0 -27.03c0,-1.51 1.23,-2.74 2.74,-2.74zm47.85 3.7l1.59 0 0 25.11 -1.59 0 0 -25.11zm-21.68 0l1.59 0 0 25.11 -1.59 0 0 -25.11zm-21.68 0l1.59 0 0 25.11 -1.59 0 0 -25.11z"/>
   <path class="fil2" d="M32.31 75.19l52.36 0 0 -17.41c0,-1.71 1.4,-3.11 3.11,-3.11l9.22 0c9.89,0 12.91,14.23 12.91,22.17l0 2.84 0 0.87 0.61 0c0.42,0 0.75,0.34 0.75,0.75l0 2.2c0,0.41 -0.34,0.75 -0.75,0.75l-0.83 0c-0.21,0.3 -0.56,0.49 -0.95,0.49l-7.11 0c-0.58,-4.75 -4.63,-8.43 -9.54,-8.43 -4.91,0 -8.96,3.68 -9.54,8.43l-28.94 0c-0.58,-4.75 -4.63,-8.43 -9.54,-8.43 -4.91,0 -8.96,3.68 -9.54,8.43l-2.2 0c-0.65,0 -1.18,-0.53 -1.18,-1.18l0 -7.2c0,-0.65 0.53,-1.18 1.18,-1.18zm59.77 3.76c3.86,0 6.98,3.13 6.98,6.98 0,3.86 -3.13,6.98 -6.98,6.98 -3.86,0 -6.98,-3.13 -6.98,-6.98 0,-3.86 3.13,-6.98 6.98,-6.98zm0 2.94c2.23,0 4.04,1.81 4.04,4.04 0,2.23 -1.81,4.04 -4.04,4.04 -2.23,0 -4.04,-1.81 -4.04,-4.04 0,-2.23 1.81,-4.04 4.04,-4.04zm0 2.86c0.65,0 1.18,0.53 1.18,1.18 0,0.65 -0.53,1.18 -1.18,1.18 -0.65,0 -1.18,-0.53 -1.18,-1.18 0,-0.65 0.53,-1.18 1.18,-1.18zm-0.52 -0.74l-0.28 -1.05c0.52,-0.14 1.07,-0.14 1.59,0l-0.28 1.05c-0.16,-0.04 -0.34,-0.07 -0.52,-0.07 -0.18,0 -0.35,0.02 -0.52,0.07zm1.92 0.52l0.77 -0.77c0.38,0.38 0.66,0.86 0.8,1.38l-1.05 0.28c-0.04,-0.16 -0.11,-0.33 -0.2,-0.48 -0.09,-0.15 -0.2,-0.29 -0.32,-0.41zm0.52 1.92l1.05 0.28c-0.14,0.52 -0.41,1 -0.8,1.38l-0.77 -0.77c0.12,-0.12 0.23,-0.26 0.32,-0.41 0.09,-0.15 0.15,-0.32 0.2,-0.48zm-1.41 1.41l0.28 1.05c-0.52,0.14 -1.07,0.14 -1.59,0l0.28 -1.05c0.16,0.04 0.34,0.07 0.52,0.07 0.18,0 0.35,-0.02 0.52,-0.07zm-1.92 -0.52l-0.77 0.77c-0.38,-0.38 -0.66,-0.86 -0.8,-1.38l1.05 -0.28c0.04,0.16 0.11,0.33 0.2,0.48 0.09,0.15 0.2,0.29 0.32,0.41zm-0.52 -1.92l-1.05 -0.28c0.14,-0.52 0.41,-1 0.8,-1.38l0.77 0.77c-0.12,0.12 -0.23,0.26 -0.32,0.41 -0.09,0.15 -0.15,0.32 -0.2,0.48zm-46.1 -6.47c3.86,0 6.98,3.13 6.98,6.98 0,3.86 -3.13,6.98 -6.98,6.98 -3.86,0 -6.98,-3.13 -6.98,-6.98 0,-3.86 3.13,-6.98 6.98,-6.98zm0 2.94c2.23,0 4.04,1.81 4.04,4.04 0,2.23 -1.81,4.04 -4.04,4.04 -2.23,0 -4.04,-1.81 -4.04,-4.04 0,-2.23 1.81,-4.04 4.04,-4.04zm0 2.86c0.65,0 1.18,0.53 1.18,1.18 0,0.65 -0.53,1.18 -1.18,1.18 -0.65,0 -1.18,-0.53 -1.18,-1.18 0,-0.65 0.53,-1.18 1.18,-1.18zm-0.52 -0.74l-0.28 -1.05c0.52,-0.14 1.07,-0.14 1.59,0l-0.28 1.05c-0.16,-0.04 -0.34,-0.07 -0.52,-0.07 -0.18,0 -0.35,0.02 -0.52,0.07zm1.92 0.52l0.77 -0.77c0.38,0.38 0.66,0.86 0.8,1.38l-1.05 0.28c-0.04,-0.16 -0.11,-0.33 -0.2,-0.48 -0.09,-0.15 -0.2,-0.29 -0.32,-0.41zm0.52 1.92l1.05 0.28c-0.14,0.52 -0.41,1 -0.8,1.38l-0.77 -0.77c0.12,-0.12 0.23,-0.26 0.32,-0.41 0.09,-0.15 0.15,-0.32 0.2,-0.48zm-1.41 1.41l0.28 1.05c-0.52,0.14 -1.07,0.14 -1.59,0l0.28 -1.05c0.16,0.04 0.34,0.07 0.52,0.07 0.18,0 0.35,-0.02 0.52,-0.07zm-1.92 -0.52l-0.77 0.77c-0.38,-0.38 -0.66,-0.86 -0.8,-1.38l1.05 -0.28c0.04,0.16 0.11,0.33 0.2,0.48 0.09,0.15 0.2,0.29 0.32,0.41zm-0.52 -1.92l-1.05 -0.28c0.14,-0.52 0.41,-1 0.8,-1.38l0.77 0.77c-0.12,0.12 -0.23,0.26 -0.32,0.41 -0.09,0.15 -0.15,0.32 -0.2,0.48zm60.93 -16.16c1.46,0.15 4.81,0.99 3.74,-2.68 -1.57,-5.38 -4.57,-10.29 -9.81,-10.29l-6.9 0c-0.81,0 -1.17,0.62 -1.17,1.43l0 5.77c-0.03,2.36 12.02,5.55 14.14,5.77zm-13.89 0.11l1.78 0c0.62,0 1.13,0.51 1.13,1.13l0 0c0,0.62 -0.51,1.13 -1.13,1.13l-1.78 0c-0.62,0 -1.13,-0.51 -1.13,-1.13l0 -0c0,-0.62 0.51,-1.13 1.13,-1.13zm-4.5 -16.11l15.85 0 -11.63 -6.29c-2.96,-1.6 -4.22,-1.12 -4.22,1.88l0 4.41z"/>
   <path class="fil1" d="M27.66 83.99l0 -2.73c0,-0.41 0.34,-0.75 0.75,-0.75l1.8 0 0 4.24 -1.8 0c-0.41,0 -0.75,-0.34 -0.75,-0.75z"/>
  </g>
 </g>
</svg>
